<svg xmlns="http://www.w3.org/2000/svg" viewBox="0 0 900 900"><defs><linearGradient id="b" x1="0" y1="0" x2="1" y2="1"><stop stop-color="#041d3a"/><stop offset="1" stop-color="#0b4b89"/></linearGradient><linearGradient id="o" x1="0" y1="1" x2="1" y2="0"><stop stop-color="#f57c00"/><stop offset="1" stop-color="#ffb04a"/></linearGradient></defs><rect width="900" height="900" fill="url(#b)"/><g opacity=".12" stroke="#fff"><path d="M0 180h900M0 360h900M0 540h900M0 720h900"/><path d="M180 0v900M360 0v900M540 0v900M720 0v900"/></g><circle cx="450" cy="410" r="270" fill="none" stroke="#fff" stroke-opacity=".16" stroke-width="2"/><ellipse cx="450" cy="410" rx="270" ry="105" fill="none" stroke="#fff" stroke-opacity=".18" stroke-width="2"/><ellipse cx="450" cy="410" rx="115" ry="270" fill="none" stroke="#fff" stroke-opacity=".18" stroke-width="2"/><path d="M145 650 L280 545 L390 590 L520 430 L630 485 L770 275" fill="none" stroke="url(#o)" stroke-width="18" stroke-linecap="round" stroke-linejoin="round"/><path d="M704 282h68v68" fill="none" stroke="#ffb04a" stroke-width="18" stroke-linecap="round" stroke-linejoin="round"/><g fill="#fff"><rect x="175" y="610" width="48" height="115" rx="8" opacity=".78"/><rect x="265" y="555" width="48" height="170" rx="8" opacity=".84"/><rect x="355" y="510" width="48" height="215" rx="8" opacity=".9"/><rect x="445" y="445" width="48" height="280" rx="8" opacity=".95"/></g><g fill="#f57c00"><circle cx="280" cy="545" r="15"/><circle cx="390" cy="590" r="15"/><circle cx="520" cy="430" r="15"/><circle cx="630" cy="485" r="15"/></g><text x="450" y="805" text-anchor="middle" fill="#fff" font-family="Arial,sans-serif" font-size="34" font-weight="700" letter-spacing="4">WEALTH • GROWTH • SECURITY</text></svg>